%TF.GenerationSoftware,KiCad,Pcbnew,9.0.2-9.0.2-0~ubuntu22.04.1*%
%TF.CreationDate,2025-06-23T11:59:03+05:30*%
%TF.ProjectId,CP2102,43503231-3032-42e6-9b69-6361645f7063,rev?*%
%TF.SameCoordinates,Original*%
%TF.FileFunction,Soldermask,Top*%
%TF.FilePolarity,Negative*%
%FSLAX46Y46*%
G04 Gerber Fmt 4.6, Leading zero omitted, Abs format (unit mm)*
G04 Created by KiCad (PCBNEW 9.0.2-9.0.2-0~ubuntu22.04.1) date 2025-06-23 11:59:03*
%MOMM*%
%LPD*%
G01*
G04 APERTURE LIST*
G04 Aperture macros list*
%AMRoundRect*
0 Rectangle with rounded corners*
0 $1 Rounding radius*
0 $2 $3 $4 $5 $6 $7 $8 $9 X,Y pos of 4 corners*
0 Add a 4 corners polygon primitive as box body*
4,1,4,$2,$3,$4,$5,$6,$7,$8,$9,$2,$3,0*
0 Add four circle primitives for the rounded corners*
1,1,$1+$1,$2,$3*
1,1,$1+$1,$4,$5*
1,1,$1+$1,$6,$7*
1,1,$1+$1,$8,$9*
0 Add four rect primitives between the rounded corners*
20,1,$1+$1,$2,$3,$4,$5,0*
20,1,$1+$1,$4,$5,$6,$7,0*
20,1,$1+$1,$6,$7,$8,$9,0*
20,1,$1+$1,$8,$9,$2,$3,0*%
G04 Aperture macros list end*
%ADD10R,1.700000X1.700000*%
%ADD11C,1.700000*%
%ADD12RoundRect,0.100000X-0.130000X-0.100000X0.130000X-0.100000X0.130000X0.100000X-0.130000X0.100000X0*%
%ADD13RoundRect,0.100000X0.130000X0.100000X-0.130000X0.100000X-0.130000X-0.100000X0.130000X-0.100000X0*%
%ADD14C,0.650000*%
%ADD15R,1.450000X0.600000*%
%ADD16R,1.450000X0.300000*%
%ADD17O,2.100000X1.000000*%
%ADD18O,1.600000X1.000000*%
%ADD19RoundRect,0.100000X0.100000X-0.130000X0.100000X0.130000X-0.100000X0.130000X-0.100000X-0.130000X0*%
%ADD20RoundRect,0.062500X-0.337500X-0.062500X0.337500X-0.062500X0.337500X0.062500X-0.337500X0.062500X0*%
%ADD21RoundRect,0.062500X-0.062500X-0.337500X0.062500X-0.337500X0.062500X0.337500X-0.062500X0.337500X0*%
%ADD22R,3.350000X3.350000*%
G04 APERTURE END LIST*
D10*
%TO.C,J2*%
X130500000Y-35340000D03*
D11*
X130500000Y-37880000D03*
X130500000Y-40420000D03*
X130500000Y-42960000D03*
X130500000Y-45500000D03*
%TD*%
D12*
%TO.C,C4*%
X124180000Y-41000000D03*
X124820000Y-41000000D03*
%TD*%
D13*
%TO.C,R3*%
X124820000Y-43000000D03*
X124180000Y-43000000D03*
%TD*%
D12*
%TO.C,R2*%
X126335000Y-39500000D03*
X126975000Y-39500000D03*
%TD*%
%TO.C,R1*%
X124135000Y-39000000D03*
X124775000Y-39000000D03*
%TD*%
D14*
%TO.C,J1*%
X110600000Y-37610000D03*
X110600000Y-43390000D03*
D15*
X112045000Y-37250000D03*
X112045000Y-38050000D03*
D16*
X112045000Y-39250000D03*
X112045000Y-40250000D03*
X112045000Y-40750000D03*
X112045000Y-41750000D03*
D15*
X112045000Y-42950000D03*
X112045000Y-43750000D03*
X112045000Y-43750000D03*
X112045000Y-42950000D03*
D16*
X112045000Y-42250000D03*
X112045000Y-41250000D03*
X112045000Y-39750000D03*
X112045000Y-38750000D03*
D15*
X112045000Y-38050000D03*
X112045000Y-37250000D03*
D17*
X111130000Y-36180000D03*
D18*
X106950000Y-36180000D03*
D17*
X111130000Y-44820000D03*
D18*
X106950000Y-44820000D03*
%TD*%
D12*
%TO.C,R7*%
X124180000Y-42000000D03*
X124820000Y-42000000D03*
%TD*%
%TO.C,C2*%
X124180000Y-38000000D03*
X124820000Y-38000000D03*
%TD*%
%TO.C,C3*%
X126335000Y-40500000D03*
X126975000Y-40500000D03*
%TD*%
D19*
%TO.C,D4*%
X123000000Y-39165000D03*
X123000000Y-38525000D03*
%TD*%
D20*
%TO.C,U1*%
X116100000Y-39000000D03*
X116100000Y-39500000D03*
X116100000Y-40000000D03*
X116100000Y-40500000D03*
X116100000Y-41000000D03*
X116100000Y-41500000D03*
X116100000Y-42000000D03*
D21*
X117050000Y-42950000D03*
X117550000Y-42950000D03*
X118050000Y-42950000D03*
X118550000Y-42950000D03*
X119050000Y-42950000D03*
X119550000Y-42950000D03*
X120050000Y-42950000D03*
D20*
X121000000Y-42000000D03*
X121000000Y-41500000D03*
X121000000Y-41000000D03*
X121000000Y-40500000D03*
X121000000Y-40000000D03*
X121000000Y-39500000D03*
X121000000Y-39000000D03*
D21*
X120050000Y-38050000D03*
X119550000Y-38050000D03*
X119050000Y-38050000D03*
X118550000Y-38050000D03*
X118050000Y-38050000D03*
X117550000Y-38050000D03*
X117050000Y-38050000D03*
D22*
X118550000Y-40500000D03*
%TD*%
D12*
%TO.C,R5*%
X126335000Y-43000000D03*
X126975000Y-43000000D03*
%TD*%
%TO.C,R4*%
X124180000Y-40000000D03*
X124820000Y-40000000D03*
%TD*%
%TO.C,C1*%
X126335000Y-38000000D03*
X126975000Y-38000000D03*
%TD*%
D19*
%TO.C,D5*%
X123000000Y-41665000D03*
X123000000Y-41025000D03*
%TD*%
D12*
%TO.C,R6*%
X126335000Y-41500000D03*
X126975000Y-41500000D03*
%TD*%
M02*
