M48
; DRILL file {KiCad 9.0.2-9.0.2-0~ubuntu22.04.1} date 2025-06-23T11:59:28+0530
; FORMAT={-:-/ absolute / metric / decimal}
; #@! TF.CreationDate,2025-06-23T11:59:28+05:30
; #@! TF.GenerationSoftware,Kicad,Pcbnew,9.0.2-9.0.2-0~ubuntu22.04.1
; #@! TF.FileFunction,Plated,1,2,PTH
FMAT,2
METRIC
; #@! TA.AperFunction,Plated,PTH,ViaDrill
T1C0.300
; #@! TA.AperFunction,Plated,PTH,ComponentDrill
T2C0.600
; #@! TA.AperFunction,Plated,PTH,ComponentDrill
T3C1.000
%
G90
G05
T1
X110.8Y-39.1
X114.1Y-40.4
X114.3Y-41.7
X115.2Y-41.8
X116.0Y-38.0
X122.8Y-40.0
X123.2Y-38.1
X123.4Y-43.0
X123.9Y-38.7
X124.9Y-43.9
X125.4Y-43.2
X125.6Y-39.8
X127.0Y-42.2
X129.2Y-41.6
X129.2Y-42.6
T3
X130.5Y-35.34
X130.5Y-37.88
X130.5Y-40.42
X130.5Y-42.96
X130.5Y-45.5
T2
G00X107.25Y-36.18
M15
G01X106.65Y-36.18
M16
G05
G00X107.25Y-44.82
M15
G01X106.65Y-44.82
M16
G05
G00X111.68Y-36.18
M15
G01X110.58Y-36.18
M16
G05
G00X111.68Y-44.82
M15
G01X110.58Y-44.82
M16
G05
M30
