%TF.GenerationSoftware,KiCad,Pcbnew,9.0.2-9.0.2-0~ubuntu22.04.1*%
%TF.CreationDate,2025-06-23T11:59:02+05:30*%
%TF.ProjectId,CP2102,43503231-3032-42e6-9b69-6361645f7063,rev?*%
%TF.SameCoordinates,Original*%
%TF.FileFunction,Copper,L1,Top*%
%TF.FilePolarity,Positive*%
%FSLAX46Y46*%
G04 Gerber Fmt 4.6, Leading zero omitted, Abs format (unit mm)*
G04 Created by KiCad (PCBNEW 9.0.2-9.0.2-0~ubuntu22.04.1) date 2025-06-23 11:59:02*
%MOMM*%
%LPD*%
G01*
G04 APERTURE LIST*
G04 Aperture macros list*
%AMRoundRect*
0 Rectangle with rounded corners*
0 $1 Rounding radius*
0 $2 $3 $4 $5 $6 $7 $8 $9 X,Y pos of 4 corners*
0 Add a 4 corners polygon primitive as box body*
4,1,4,$2,$3,$4,$5,$6,$7,$8,$9,$2,$3,0*
0 Add four circle primitives for the rounded corners*
1,1,$1+$1,$2,$3*
1,1,$1+$1,$4,$5*
1,1,$1+$1,$6,$7*
1,1,$1+$1,$8,$9*
0 Add four rect primitives between the rounded corners*
20,1,$1+$1,$2,$3,$4,$5,0*
20,1,$1+$1,$4,$5,$6,$7,0*
20,1,$1+$1,$6,$7,$8,$9,0*
20,1,$1+$1,$8,$9,$2,$3,0*%
G04 Aperture macros list end*
%TA.AperFunction,ComponentPad*%
%ADD10R,1.700000X1.700000*%
%TD*%
%TA.AperFunction,ComponentPad*%
%ADD11C,1.700000*%
%TD*%
%TA.AperFunction,SMDPad,CuDef*%
%ADD12RoundRect,0.100000X-0.130000X-0.100000X0.130000X-0.100000X0.130000X0.100000X-0.130000X0.100000X0*%
%TD*%
%TA.AperFunction,SMDPad,CuDef*%
%ADD13RoundRect,0.100000X0.130000X0.100000X-0.130000X0.100000X-0.130000X-0.100000X0.130000X-0.100000X0*%
%TD*%
%TA.AperFunction,SMDPad,CuDef*%
%ADD14R,1.450000X0.600000*%
%TD*%
%TA.AperFunction,SMDPad,CuDef*%
%ADD15R,1.450000X0.300000*%
%TD*%
%TA.AperFunction,HeatsinkPad*%
%ADD16O,2.100000X1.000000*%
%TD*%
%TA.AperFunction,HeatsinkPad*%
%ADD17O,1.600000X1.000000*%
%TD*%
%TA.AperFunction,SMDPad,CuDef*%
%ADD18RoundRect,0.100000X0.100000X-0.130000X0.100000X0.130000X-0.100000X0.130000X-0.100000X-0.130000X0*%
%TD*%
%TA.AperFunction,SMDPad,CuDef*%
%ADD19RoundRect,0.062500X-0.337500X-0.062500X0.337500X-0.062500X0.337500X0.062500X-0.337500X0.062500X0*%
%TD*%
%TA.AperFunction,SMDPad,CuDef*%
%ADD20RoundRect,0.062500X-0.062500X-0.337500X0.062500X-0.337500X0.062500X0.337500X-0.062500X0.337500X0*%
%TD*%
%TA.AperFunction,HeatsinkPad*%
%ADD21R,3.350000X3.350000*%
%TD*%
%TA.AperFunction,ViaPad*%
%ADD22C,0.600000*%
%TD*%
%TA.AperFunction,Conductor*%
%ADD23C,0.200000*%
%TD*%
G04 APERTURE END LIST*
D10*
%TO.P,J2,1,Pin_1*%
%TO.N,GND*%
X130500000Y-35340000D03*
D11*
%TO.P,J2,2,Pin_2*%
%TO.N,/VBUS*%
X130500000Y-37880000D03*
%TO.P,J2,3,Pin_3*%
%TO.N,/RX*%
X130500000Y-40420000D03*
%TO.P,J2,4,Pin_4*%
%TO.N,/TX*%
X130500000Y-42960000D03*
%TO.P,J2,5,Pin_5*%
%TO.N,/RST*%
X130500000Y-45500000D03*
%TD*%
D12*
%TO.P,C4,1*%
%TO.N,/VBUS*%
X124180000Y-41000000D03*
%TO.P,C4,2*%
%TO.N,GND*%
X124820000Y-41000000D03*
%TD*%
D13*
%TO.P,R3,1*%
%TO.N,/VBUS*%
X124820000Y-43000000D03*
%TO.P,R3,2*%
%TO.N,Net-(U1-~{RST})*%
X124180000Y-43000000D03*
%TD*%
D12*
%TO.P,R2,1*%
%TO.N,GND*%
X126335000Y-39500000D03*
%TO.P,R2,2*%
%TO.N,Net-(J1-CC2)*%
X126975000Y-39500000D03*
%TD*%
%TO.P,R1,1*%
%TO.N,Net-(J1-CC1)*%
X124135000Y-39000000D03*
%TO.P,R1,2*%
%TO.N,GND*%
X124775000Y-39000000D03*
%TD*%
D14*
%TO.P,J1,A1,GND*%
%TO.N,GND*%
X112045000Y-37250000D03*
%TO.P,J1,A4,VBUS*%
%TO.N,Net-(D3-Pad2)*%
X112045000Y-38050000D03*
D15*
%TO.P,J1,A5,CC1*%
%TO.N,Net-(J1-CC1)*%
X112045000Y-39250000D03*
%TO.P,J1,A6,D+*%
%TO.N,/D+*%
X112045000Y-40250000D03*
%TO.P,J1,A7,D-*%
%TO.N,/D-*%
X112045000Y-40750000D03*
%TO.P,J1,A8,SBU1*%
%TO.N,unconnected-(J1-SBU1-PadA8)*%
X112045000Y-41750000D03*
D14*
%TO.P,J1,A9,VBUS*%
%TO.N,Net-(D3-Pad2)*%
X112045000Y-42950000D03*
%TO.P,J1,A12,GND*%
%TO.N,GND*%
X112045000Y-43750000D03*
%TO.P,J1,B1,GND*%
X112045000Y-43750000D03*
%TO.P,J1,B4,VBUS*%
%TO.N,Net-(D3-Pad2)*%
X112045000Y-42950000D03*
D15*
%TO.P,J1,B5,CC2*%
%TO.N,Net-(J1-CC2)*%
X112045000Y-42250000D03*
%TO.P,J1,B6,D+*%
%TO.N,/D+*%
X112045000Y-41250000D03*
%TO.P,J1,B7,D-*%
%TO.N,/D-*%
X112045000Y-39750000D03*
%TO.P,J1,B8,SBU2*%
%TO.N,unconnected-(J1-SBU2-PadB8)*%
X112045000Y-38750000D03*
D14*
%TO.P,J1,B9,VBUS*%
%TO.N,Net-(D3-Pad2)*%
X112045000Y-38050000D03*
%TO.P,J1,B12,GND*%
%TO.N,GND*%
X112045000Y-37250000D03*
D16*
%TO.P,J1,S1,SHIELD*%
X111130000Y-36180000D03*
D17*
X106950000Y-36180000D03*
D16*
X111130000Y-44820000D03*
D17*
X106950000Y-44820000D03*
%TD*%
D12*
%TO.P,R7,1*%
%TO.N,/VBUS*%
X124180000Y-42000000D03*
%TO.P,R7,2*%
%TO.N,Net-(D5-A)*%
X124820000Y-42000000D03*
%TD*%
%TO.P,C2,1*%
%TO.N,Net-(U1-~{DTR})*%
X124180000Y-38000000D03*
%TO.P,C2,2*%
%TO.N,/RST*%
X124820000Y-38000000D03*
%TD*%
%TO.P,C3,1*%
%TO.N,/VBUS*%
X126335000Y-40500000D03*
%TO.P,C3,2*%
%TO.N,GND*%
X126975000Y-40500000D03*
%TD*%
D18*
%TO.P,D4,1,K*%
%TO.N,Net-(D4-K)*%
X123000000Y-39165000D03*
%TO.P,D4,2,A*%
%TO.N,Net-(D4-A)*%
X123000000Y-38525000D03*
%TD*%
D19*
%TO.P,U1,1,~{DCD}*%
%TO.N,unconnected-(U1-~{DCD}-Pad1)*%
X116100000Y-39000000D03*
%TO.P,U1,2,~{RI}/CLK*%
%TO.N,unconnected-(U1-~{RI}{slash}CLK-Pad2)*%
X116100000Y-39500000D03*
%TO.P,U1,3,GND*%
%TO.N,GND*%
X116100000Y-40000000D03*
%TO.P,U1,4,D+*%
%TO.N,/D+*%
X116100000Y-40500000D03*
%TO.P,U1,5,D-*%
%TO.N,/D-*%
X116100000Y-41000000D03*
%TO.P,U1,6,VDD*%
%TO.N,Net-(U1-VDD)*%
X116100000Y-41500000D03*
%TO.P,U1,7,VREGIN*%
%TO.N,/VBUS*%
X116100000Y-42000000D03*
D20*
%TO.P,U1,8,VBUS*%
X117050000Y-42950000D03*
%TO.P,U1,9,~{RST}*%
%TO.N,Net-(U1-~{RST})*%
X117550000Y-42950000D03*
%TO.P,U1,10,NC*%
%TO.N,unconnected-(U1-NC-Pad10)*%
X118050000Y-42950000D03*
%TO.P,U1,11,~{SUSPEND}*%
%TO.N,unconnected-(U1-~{SUSPEND}-Pad11)*%
X118550000Y-42950000D03*
%TO.P,U1,12,SUSPEND*%
%TO.N,unconnected-(U1-SUSPEND-Pad12)*%
X119050000Y-42950000D03*
%TO.P,U1,13,CHREN*%
%TO.N,unconnected-(U1-CHREN-Pad13)*%
X119550000Y-42950000D03*
%TO.P,U1,14,CHR1*%
%TO.N,unconnected-(U1-CHR1-Pad14)*%
X120050000Y-42950000D03*
D19*
%TO.P,U1,15,CHR0*%
%TO.N,unconnected-(U1-CHR0-Pad15)*%
X121000000Y-42000000D03*
%TO.P,U1,16,~{WAKEUP}/GPIO.3*%
%TO.N,unconnected-(U1-~{WAKEUP}{slash}GPIO.3-Pad16)*%
X121000000Y-41500000D03*
%TO.P,U1,17,RS485/GPIO.2*%
%TO.N,unconnected-(U1-RS485{slash}GPIO.2-Pad17)*%
X121000000Y-41000000D03*
%TO.P,U1,18,~{RXT}/GPIO.1*%
%TO.N,unconnected-(U1-~{RXT}{slash}GPIO.1-Pad18)*%
X121000000Y-40500000D03*
%TO.P,U1,19,~{TXT}/GPIO.0*%
%TO.N,unconnected-(U1-~{TXT}{slash}GPIO.0-Pad19)*%
X121000000Y-40000000D03*
%TO.P,U1,20,GPIO.6*%
%TO.N,unconnected-(U1-GPIO.6-Pad20)*%
X121000000Y-39500000D03*
%TO.P,U1,21,GPIO.5*%
%TO.N,unconnected-(U1-GPIO.5-Pad21)*%
X121000000Y-39000000D03*
D20*
%TO.P,U1,22,GPIO.4*%
%TO.N,unconnected-(U1-GPIO.4-Pad22)*%
X120050000Y-38050000D03*
%TO.P,U1,23,~{CTS}*%
%TO.N,unconnected-(U1-~{CTS}-Pad23)*%
X119550000Y-38050000D03*
%TO.P,U1,24,~{RTS}*%
%TO.N,unconnected-(U1-~{RTS}-Pad24)*%
X119050000Y-38050000D03*
%TO.P,U1,25,RXD*%
%TO.N,Net-(D5-K)*%
X118550000Y-38050000D03*
%TO.P,U1,26,TXD*%
%TO.N,Net-(D4-K)*%
X118050000Y-38050000D03*
%TO.P,U1,27,~{DSR}*%
%TO.N,unconnected-(U1-~{DSR}-Pad27)*%
X117550000Y-38050000D03*
%TO.P,U1,28,~{DTR}*%
%TO.N,Net-(U1-~{DTR})*%
X117050000Y-38050000D03*
D21*
%TO.P,U1,29,GND*%
%TO.N,GND*%
X118550000Y-40500000D03*
%TD*%
D12*
%TO.P,R5,1*%
%TO.N,/RX*%
X126335000Y-43000000D03*
%TO.P,R5,2*%
%TO.N,Net-(D5-K)*%
X126975000Y-43000000D03*
%TD*%
%TO.P,R4,1*%
%TO.N,/TX*%
X124180000Y-40000000D03*
%TO.P,R4,2*%
%TO.N,Net-(D4-K)*%
X124820000Y-40000000D03*
%TD*%
%TO.P,C1,1*%
%TO.N,GND*%
X126335000Y-38000000D03*
%TO.P,C1,2*%
%TO.N,Net-(U1-VDD)*%
X126975000Y-38000000D03*
%TD*%
D18*
%TO.P,D5,1,K*%
%TO.N,Net-(D5-K)*%
X123000000Y-41665000D03*
%TO.P,D5,2,A*%
%TO.N,Net-(D5-A)*%
X123000000Y-41025000D03*
%TD*%
D12*
%TO.P,R6,1*%
%TO.N,/VBUS*%
X126335000Y-41500000D03*
%TO.P,R6,2*%
%TO.N,Net-(D4-A)*%
X126975000Y-41500000D03*
%TD*%
D22*
%TO.N,Net-(U1-VDD)*%
X115200000Y-41800000D03*
X116000000Y-38000000D03*
%TO.N,/VBUS*%
X125400000Y-43200000D03*
%TO.N,Net-(D4-A)*%
X125600000Y-39800000D03*
X123200000Y-38100000D03*
%TO.N,Net-(D5-K)*%
X124900000Y-43900000D03*
X123400000Y-43000000D03*
%TO.N,/D-*%
X110800000Y-39100000D03*
X114300000Y-41700000D03*
%TO.N,Net-(J1-CC1)*%
X123900000Y-38700000D03*
X114100000Y-40400000D03*
%TO.N,/TX*%
X129200000Y-42600000D03*
X122800000Y-40000000D03*
%TO.N,/RX*%
X127000000Y-42200000D03*
X129200000Y-41600000D03*
%TD*%
D23*
%TO.N,Net-(U1-VDD)*%
X121565686Y-35500000D02*
X117500000Y-35500000D01*
X116100000Y-41500000D02*
X115500000Y-41500000D01*
X126500000Y-37000000D02*
X123065686Y-37000000D01*
X117500000Y-35500000D02*
X116500000Y-36500000D01*
X126975000Y-37525000D02*
X127000000Y-37500000D01*
X116500000Y-37500000D02*
X116000000Y-38000000D01*
X123065686Y-37000000D02*
X121565686Y-35500000D01*
X127000000Y-37500000D02*
X126500000Y-37000000D01*
X115500000Y-41500000D02*
X115200000Y-41800000D01*
X116500000Y-36500000D02*
X116500000Y-37500000D01*
X126975000Y-38000000D02*
X126975000Y-37525000D01*
%TO.N,/RST*%
X128500000Y-39500000D02*
X128500000Y-43500000D01*
X128500000Y-43500000D02*
X130500000Y-45500000D01*
X125500000Y-38000000D02*
X126000000Y-38500000D01*
X127500000Y-38500000D02*
X128500000Y-39500000D01*
X124820000Y-38000000D02*
X125500000Y-38000000D01*
X126000000Y-38500000D02*
X127500000Y-38500000D01*
%TO.N,Net-(U1-~{DTR})*%
X122000000Y-37000000D02*
X122500000Y-37500000D01*
X118000000Y-36000000D02*
X121500000Y-36000000D01*
X117050000Y-38050000D02*
X117000000Y-38000000D01*
X117000000Y-37000000D02*
X118000000Y-36000000D01*
X122500000Y-37500000D02*
X123680000Y-37500000D01*
X121500000Y-36000000D02*
X122000000Y-36500000D01*
X117000000Y-38000000D02*
X117000000Y-37000000D01*
X122000000Y-36500000D02*
X122000000Y-37000000D01*
X123680000Y-37500000D02*
X124180000Y-38000000D01*
%TO.N,/VBUS*%
X116000000Y-42500000D02*
X116000000Y-42100000D01*
X117000000Y-43000000D02*
X116500000Y-43000000D01*
X124820000Y-42820000D02*
X124180000Y-42180000D01*
X124820000Y-43000000D02*
X124820000Y-42820000D01*
X116000000Y-42100000D02*
X116100000Y-42000000D01*
X125500000Y-42000000D02*
X125500000Y-42320000D01*
X126000000Y-42000000D02*
X125500000Y-42000000D01*
X126335000Y-40500000D02*
X126335000Y-41500000D01*
X117050000Y-42950000D02*
X117000000Y-43000000D01*
X125200000Y-43000000D02*
X125400000Y-43200000D01*
X124820000Y-43000000D02*
X125200000Y-43000000D01*
X125500000Y-42320000D02*
X124820000Y-43000000D01*
X116500000Y-43000000D02*
X116000000Y-42500000D01*
X124180000Y-42000000D02*
X124180000Y-41000000D01*
X124180000Y-42180000D02*
X124180000Y-42000000D01*
X126335000Y-41665000D02*
X126000000Y-42000000D01*
X126335000Y-41500000D02*
X126335000Y-41665000D01*
%TO.N,Net-(D4-K)*%
X122032843Y-38467157D02*
X122730686Y-39165000D01*
X124600000Y-39500000D02*
X124600000Y-39600000D01*
X118050000Y-38050000D02*
X118000000Y-38000000D01*
X123000000Y-39165000D02*
X123000000Y-39200000D01*
X124600000Y-39600000D02*
X124820000Y-39820000D01*
X118500000Y-36500000D02*
X121000000Y-36500000D01*
X121500000Y-37000000D02*
X121500000Y-37500000D01*
X124820000Y-39820000D02*
X124820000Y-40000000D01*
X121000000Y-36500000D02*
X121500000Y-37000000D01*
X118000000Y-38000000D02*
X118000000Y-37000000D01*
X123400000Y-39600000D02*
X123781544Y-39600000D01*
X123781544Y-39600000D02*
X123881544Y-39500000D01*
X122730686Y-39165000D02*
X123000000Y-39165000D01*
X118000000Y-37000000D02*
X118500000Y-36500000D01*
X123881544Y-39500000D02*
X124600000Y-39500000D01*
X123000000Y-39200000D02*
X123400000Y-39600000D01*
X122032843Y-38032843D02*
X122032843Y-38467157D01*
X121500000Y-37500000D02*
X122032843Y-38032843D01*
%TO.N,Net-(D4-A)*%
X127434314Y-40000000D02*
X127505000Y-40070686D01*
X125600000Y-39800000D02*
X125800000Y-40000000D01*
X127505000Y-40970000D02*
X126975000Y-41500000D01*
X127505000Y-40070686D02*
X127505000Y-40970000D01*
X123000000Y-38525000D02*
X123000000Y-38300000D01*
X123000000Y-38300000D02*
X123200000Y-38100000D01*
X125800000Y-40000000D02*
X127434314Y-40000000D01*
%TO.N,Net-(D5-A)*%
X125500000Y-41500000D02*
X125320000Y-41500000D01*
X123000000Y-41025000D02*
X123000000Y-41000000D01*
X123000000Y-41000000D02*
X123500000Y-40500000D01*
X125320000Y-41500000D02*
X124820000Y-42000000D01*
X125935000Y-40935000D02*
X125935000Y-41065000D01*
X123500000Y-40500000D02*
X125500000Y-40500000D01*
X125935000Y-41065000D02*
X125500000Y-41500000D01*
X125500000Y-40500000D02*
X125935000Y-40935000D01*
%TO.N,Net-(D5-K)*%
X126975000Y-43625000D02*
X126975000Y-43000000D01*
X122000000Y-39000000D02*
X121000000Y-38000000D01*
X118550000Y-37450000D02*
X118550000Y-38050000D01*
X123000000Y-41665000D02*
X122665000Y-41665000D01*
X122500000Y-40500000D02*
X122000000Y-40000000D01*
X122500000Y-41500000D02*
X122500000Y-40500000D01*
X123000000Y-42600000D02*
X123400000Y-43000000D01*
X120500000Y-37000000D02*
X119000000Y-37000000D01*
X122000000Y-40000000D02*
X122000000Y-39000000D01*
X126500000Y-43900000D02*
X126600000Y-44000000D01*
X124800000Y-44000000D02*
X124900000Y-43900000D01*
X121000000Y-37500000D02*
X120500000Y-37000000D01*
X122665000Y-41665000D02*
X122500000Y-41500000D01*
X121000000Y-38000000D02*
X121000000Y-37500000D01*
X119000000Y-37000000D02*
X118550000Y-37450000D01*
X124900000Y-43900000D02*
X126500000Y-43900000D01*
X126600000Y-44000000D02*
X126975000Y-43625000D01*
X123000000Y-41665000D02*
X123000000Y-42600000D01*
%TO.N,/D+*%
X115000000Y-40100000D02*
X115300000Y-40100000D01*
X113500000Y-40500000D02*
X113500000Y-41000000D01*
X112045000Y-40250000D02*
X113250000Y-40250000D01*
X115500000Y-40500000D02*
X116100000Y-40500000D01*
X115300000Y-40100000D02*
X115300000Y-40300000D01*
X115300000Y-40300000D02*
X115500000Y-40500000D01*
X115000000Y-40500000D02*
X115000000Y-40100000D01*
X113250000Y-41250000D02*
X112045000Y-41250000D01*
X113250000Y-40250000D02*
X113500000Y-40500000D01*
X113500000Y-41000000D02*
X113250000Y-41250000D01*
X113500000Y-41000000D02*
X114500000Y-41000000D01*
X114500000Y-41000000D02*
X115000000Y-40500000D01*
%TO.N,/D-*%
X110800000Y-39700000D02*
X110750000Y-39750000D01*
X110500000Y-40500000D02*
X110750000Y-40750000D01*
X110500000Y-40000000D02*
X110500000Y-40500000D01*
X112045000Y-39750000D02*
X110750000Y-39750000D01*
X110750000Y-39750000D02*
X110500000Y-40000000D01*
X115000000Y-41000000D02*
X114300000Y-41700000D01*
X116100000Y-41000000D02*
X115000000Y-41000000D01*
X110800000Y-39100000D02*
X110800000Y-39700000D01*
X110750000Y-40750000D02*
X112045000Y-40750000D01*
%TO.N,Net-(D3-Pad2)*%
X112045000Y-38050000D02*
X110450000Y-38050000D01*
X110450000Y-38050000D02*
X110000000Y-38500000D01*
X112045000Y-42950000D02*
X110950000Y-42950000D01*
X110000000Y-38500000D02*
X110000000Y-42000000D01*
X110950000Y-42950000D02*
X110000000Y-42000000D01*
%TO.N,Net-(J1-CC1)*%
X114000000Y-40000000D02*
X114100000Y-40100000D01*
X124135000Y-38935000D02*
X123900000Y-38700000D01*
X113250000Y-39250000D02*
X114000000Y-40000000D01*
X114100000Y-40100000D02*
X114100000Y-40400000D01*
X112045000Y-39250000D02*
X113250000Y-39250000D01*
X124135000Y-39000000D02*
X124135000Y-38935000D01*
%TO.N,Net-(J1-CC2)*%
X127500000Y-44500000D02*
X117000000Y-44500000D01*
X115000000Y-43000000D02*
X113500000Y-43000000D01*
X128000000Y-44000000D02*
X127500000Y-44500000D01*
X117000000Y-44500000D02*
X116000000Y-43500000D01*
X113500000Y-42500000D02*
X113250000Y-42250000D01*
X113500000Y-43000000D02*
X113500000Y-42500000D01*
X127500000Y-39500000D02*
X128000000Y-40000000D01*
X128000000Y-40000000D02*
X128000000Y-44000000D01*
X115500000Y-43500000D02*
X115000000Y-43000000D01*
X126975000Y-39500000D02*
X127500000Y-39500000D01*
X113250000Y-42250000D02*
X112045000Y-42250000D01*
X116000000Y-43500000D02*
X115500000Y-43500000D01*
%TO.N,/TX*%
X129000000Y-42600000D02*
X129200000Y-42600000D01*
X130500000Y-42960000D02*
X130140000Y-42600000D01*
X123200000Y-40000000D02*
X122800000Y-40000000D01*
X124180000Y-40000000D02*
X123200000Y-40000000D01*
X130140000Y-42600000D02*
X129200000Y-42600000D01*
%TO.N,/RX*%
X126335000Y-43000000D02*
X126335000Y-42465000D01*
X126600000Y-42200000D02*
X127000000Y-42200000D01*
X130500000Y-40420000D02*
X130380000Y-40420000D01*
X126335000Y-42465000D02*
X126600000Y-42200000D01*
X130380000Y-40420000D02*
X129200000Y-41600000D01*
%TO.N,Net-(U1-~{RST})*%
X118000000Y-44000000D02*
X123500000Y-44000000D01*
X117550000Y-42950000D02*
X117500000Y-43000000D01*
X117500000Y-43500000D02*
X118000000Y-44000000D01*
X124180000Y-43320000D02*
X124180000Y-43000000D01*
X123500000Y-44000000D02*
X124180000Y-43320000D01*
X117500000Y-43000000D02*
X117500000Y-43500000D01*
%TD*%
%TA.AperFunction,Conductor*%
%TO.N,GND*%
G36*
X114855610Y-34225457D02*
G01*
X114922643Y-34245156D01*
X114925947Y-34247355D01*
X116444339Y-35293814D01*
X116569066Y-35379774D01*
X116569065Y-35379774D01*
X116578378Y-35386192D01*
X116592686Y-35400500D01*
X116632448Y-35423456D01*
X116649652Y-35435313D01*
X116670235Y-35449499D01*
X116678627Y-35452483D01*
X116699091Y-35461933D01*
X116706814Y-35466392D01*
X116746401Y-35476998D01*
X116749665Y-35477921D01*
X116752759Y-35478842D01*
X116794403Y-35493651D01*
X116805458Y-35494535D01*
X116817956Y-35498257D01*
X116836770Y-35510450D01*
X116857707Y-35518460D01*
X116865520Y-35529082D01*
X116876589Y-35536256D01*
X116885824Y-35556685D01*
X116899107Y-35574743D01*
X116899937Y-35587904D01*
X116905370Y-35599922D01*
X116902095Y-35622098D01*
X116903507Y-35644474D01*
X116897066Y-35656151D01*
X116895163Y-35669042D01*
X116881033Y-35685222D01*
X116870247Y-35704781D01*
X116315489Y-36259540D01*
X116259541Y-36315487D01*
X116259535Y-36315495D01*
X116219982Y-36384004D01*
X116219979Y-36384009D01*
X116210319Y-36420060D01*
X116199737Y-36459556D01*
X116199500Y-36460439D01*
X116199500Y-37324165D01*
X116190855Y-37353605D01*
X116184332Y-37383592D01*
X116180577Y-37388607D01*
X116179815Y-37391204D01*
X116163181Y-37411846D01*
X116111846Y-37463181D01*
X116050523Y-37496666D01*
X116024165Y-37499500D01*
X115934108Y-37499500D01*
X115806812Y-37533608D01*
X115692686Y-37599500D01*
X115692683Y-37599502D01*
X115599502Y-37692683D01*
X115599500Y-37692686D01*
X115533608Y-37806812D01*
X115505148Y-37913028D01*
X115499500Y-37934108D01*
X115499500Y-38065892D01*
X115505037Y-38086556D01*
X115533608Y-38193187D01*
X115550378Y-38222233D01*
X115599500Y-38307314D01*
X115692686Y-38400500D01*
X115771593Y-38446057D01*
X115819807Y-38496623D01*
X115833031Y-38565230D01*
X115807063Y-38630094D01*
X115750149Y-38670623D01*
X115733783Y-38675060D01*
X115659885Y-38689759D01*
X115659879Y-38689761D01*
X115572888Y-38747888D01*
X115514760Y-38834883D01*
X115514758Y-38834887D01*
X115499500Y-38911595D01*
X115499500Y-39088398D01*
X115514760Y-39165119D01*
X115525446Y-39181111D01*
X115546323Y-39247788D01*
X115539397Y-39290919D01*
X115534197Y-39305791D01*
X115514760Y-39334883D01*
X115502522Y-39396402D01*
X115499653Y-39404612D01*
X115484157Y-39426230D01*
X115471830Y-39449796D01*
X115459153Y-39461115D01*
X115458949Y-39461400D01*
X115458742Y-39461482D01*
X115458086Y-39462068D01*
X115361322Y-39536318D01*
X115271155Y-39653825D01*
X115242523Y-39722952D01*
X115198683Y-39777356D01*
X115132389Y-39799421D01*
X115127962Y-39799500D01*
X115039562Y-39799500D01*
X114960438Y-39799500D01*
X114922224Y-39809739D01*
X114884009Y-39819979D01*
X114884004Y-39819982D01*
X114815495Y-39859535D01*
X114815487Y-39859541D01*
X114759541Y-39915487D01*
X114759535Y-39915495D01*
X114719982Y-39984004D01*
X114719978Y-39984013D01*
X114706218Y-40035364D01*
X114703850Y-40039248D01*
X114703635Y-40043794D01*
X114685830Y-40068810D01*
X114669852Y-40095023D01*
X114665759Y-40097011D01*
X114663121Y-40100718D01*
X114634629Y-40112133D01*
X114607005Y-40125552D01*
X114602485Y-40125011D01*
X114598263Y-40126703D01*
X114568114Y-40120900D01*
X114537629Y-40117255D01*
X114532872Y-40114118D01*
X114529653Y-40113499D01*
X114508355Y-40097951D01*
X114500898Y-40093034D01*
X114499834Y-40092020D01*
X114407314Y-39999500D01*
X114395737Y-39992816D01*
X114385016Y-39982599D01*
X114376911Y-39968569D01*
X114363174Y-39954832D01*
X114340460Y-39915489D01*
X113434510Y-39009539D01*
X113400902Y-38990136D01*
X113390293Y-38984011D01*
X113369618Y-38972074D01*
X113365990Y-38969979D01*
X113365991Y-38969979D01*
X113327775Y-38959739D01*
X113289562Y-38949500D01*
X113289560Y-38949500D01*
X113094500Y-38949500D01*
X113027461Y-38929815D01*
X112981706Y-38877011D01*
X112970500Y-38825500D01*
X112970500Y-38580249D01*
X112970499Y-38580247D01*
X112956485Y-38509790D01*
X112957762Y-38509535D01*
X112951680Y-38452991D01*
X112958694Y-38429100D01*
X112960138Y-38421840D01*
X112970500Y-38369748D01*
X112970500Y-38086556D01*
X112990185Y-38019517D01*
X113020189Y-37987290D01*
X113127187Y-37907190D01*
X113127190Y-37907187D01*
X113213350Y-37792093D01*
X113213354Y-37792086D01*
X113263596Y-37657379D01*
X113263598Y-37657372D01*
X113269999Y-37597844D01*
X113270000Y-37597827D01*
X113270000Y-37500000D01*
X112295000Y-37500000D01*
X112281819Y-37513181D01*
X112220496Y-37546666D01*
X112194138Y-37549500D01*
X111895862Y-37549500D01*
X111828823Y-37529815D01*
X111808181Y-37513181D01*
X111795000Y-37500000D01*
X111261476Y-37500000D01*
X111194437Y-37480315D01*
X111148682Y-37427511D01*
X111141703Y-37408100D01*
X111136281Y-37387865D01*
X111060515Y-37256635D01*
X111015561Y-37211681D01*
X110982076Y-37150358D01*
X110987060Y-37080666D01*
X111028932Y-37024733D01*
X111094396Y-37000316D01*
X111103242Y-37000000D01*
X113270000Y-37000000D01*
X113270000Y-36902172D01*
X113269999Y-36902155D01*
X113263598Y-36842627D01*
X113263596Y-36842620D01*
X113213354Y-36707913D01*
X113213350Y-36707906D01*
X113127190Y-36592812D01*
X113127187Y-36592809D01*
X113012093Y-36506649D01*
X113012086Y-36506645D01*
X112877379Y-36456403D01*
X112877372Y-36456401D01*
X112817844Y-36450000D01*
X112724924Y-36450000D01*
X112657885Y-36430315D01*
X112657531Y-36430000D01*
X111846988Y-36430000D01*
X111864205Y-36420060D01*
X111920060Y-36364205D01*
X111959556Y-36295796D01*
X111980000Y-36219496D01*
X111980000Y-36140504D01*
X111959556Y-36064204D01*
X111920060Y-35995795D01*
X111864205Y-35939940D01*
X111846988Y-35930000D01*
X112649862Y-35930000D01*
X112641569Y-35888309D01*
X112641569Y-35888307D01*
X112566192Y-35706328D01*
X112566185Y-35706315D01*
X112456751Y-35542537D01*
X112456748Y-35542533D01*
X112317466Y-35403251D01*
X112317462Y-35403248D01*
X112153684Y-35293814D01*
X112153671Y-35293807D01*
X111971693Y-35218430D01*
X111971681Y-35218427D01*
X111778495Y-35180000D01*
X111380000Y-35180000D01*
X111380000Y-35880000D01*
X110880000Y-35880000D01*
X110880000Y-35180000D01*
X110481504Y-35180000D01*
X110288318Y-35218427D01*
X110288306Y-35218430D01*
X110106328Y-35293807D01*
X110106315Y-35293814D01*
X109942537Y-35403248D01*
X109942533Y-35403251D01*
X109803251Y-35542533D01*
X109803248Y-35542537D01*
X109693814Y-35706315D01*
X109693807Y-35706328D01*
X109618430Y-35888307D01*
X109618430Y-35888309D01*
X109610138Y-35930000D01*
X110413012Y-35930000D01*
X110395795Y-35939940D01*
X110339940Y-35995795D01*
X110300444Y-36064204D01*
X110280000Y-36140504D01*
X110280000Y-36219496D01*
X110300444Y-36295796D01*
X110339940Y-36364205D01*
X110395795Y-36420060D01*
X110413012Y-36430000D01*
X109610138Y-36430000D01*
X109618430Y-36471690D01*
X109618430Y-36471692D01*
X109693807Y-36653671D01*
X109693814Y-36653684D01*
X109803248Y-36817462D01*
X109803251Y-36817466D01*
X109942533Y-36956748D01*
X109942537Y-36956751D01*
X110111387Y-37069574D01*
X110110430Y-37071005D01*
X110154425Y-37114211D01*
X110169895Y-37182346D01*
X110146072Y-37248029D01*
X110144309Y-37250094D01*
X110144432Y-37250189D01*
X110139485Y-37256635D01*
X110063719Y-37387863D01*
X110038482Y-37482053D01*
X110024500Y-37534234D01*
X110024500Y-37685766D01*
X110063150Y-37830009D01*
X110063719Y-37832134D01*
X110063720Y-37832137D01*
X110081727Y-37863326D01*
X110098200Y-37931226D01*
X110075347Y-37997253D01*
X110062021Y-38013007D01*
X109815489Y-38259540D01*
X109759541Y-38315487D01*
X109759535Y-38315495D01*
X109719982Y-38384004D01*
X109719979Y-38384009D01*
X109709535Y-38422989D01*
X109699500Y-38460438D01*
X109699500Y-42039562D01*
X109707879Y-42070833D01*
X109719979Y-42115990D01*
X109738039Y-42147269D01*
X109738040Y-42147273D01*
X109738041Y-42147273D01*
X109748342Y-42165116D01*
X109759539Y-42184509D01*
X109759541Y-42184512D01*
X110295855Y-42720826D01*
X110329340Y-42782149D01*
X110324356Y-42851841D01*
X110282484Y-42907774D01*
X110270176Y-42915893D01*
X110246638Y-42929483D01*
X110246632Y-42929487D01*
X110139487Y-43036632D01*
X110139485Y-43036635D01*
X110063719Y-43167863D01*
X110036420Y-43269748D01*
X110024500Y-43314234D01*
X110024500Y-43465766D01*
X110027918Y-43478523D01*
X110063719Y-43612136D01*
X110073834Y-43629655D01*
X110139485Y-43743365D01*
X110139487Y-43743367D01*
X110144432Y-43749811D01*
X110141612Y-43751974D01*
X110167302Y-43799020D01*
X110162318Y-43868712D01*
X110120446Y-43924645D01*
X110111379Y-43930416D01*
X110111387Y-43930427D01*
X109942536Y-44043248D01*
X109803251Y-44182533D01*
X109803248Y-44182537D01*
X109693814Y-44346315D01*
X109693807Y-44346328D01*
X109618430Y-44528307D01*
X109618430Y-44528309D01*
X109610138Y-44570000D01*
X110413012Y-44570000D01*
X110395795Y-44579940D01*
X110339940Y-44635795D01*
X110300444Y-44704204D01*
X110280000Y-44780504D01*
X110280000Y-44859496D01*
X110300444Y-44935796D01*
X110339940Y-45004205D01*
X110395795Y-45060060D01*
X110413012Y-45070000D01*
X109610138Y-45070000D01*
X109618430Y-45111690D01*
X109618430Y-45111692D01*
X109693807Y-45293671D01*
X109693814Y-45293684D01*
X109803248Y-45457462D01*
X109803251Y-45457466D01*
X109942533Y-45596748D01*
X109942537Y-45596751D01*
X110106315Y-45706185D01*
X110106328Y-45706192D01*
X110288306Y-45781569D01*
X110288318Y-45781572D01*
X110481504Y-45819999D01*
X110481508Y-45820000D01*
X110880000Y-45820000D01*
X110880000Y-45120000D01*
X111380000Y-45120000D01*
X111380000Y-45820000D01*
X111778492Y-45820000D01*
X111778495Y-45819999D01*
X111971681Y-45781572D01*
X111971693Y-45781569D01*
X112153671Y-45706192D01*
X112153684Y-45706185D01*
X112317462Y-45596751D01*
X112317466Y-45596748D01*
X112456748Y-45457466D01*
X112456751Y-45457462D01*
X112566185Y-45293684D01*
X112566192Y-45293671D01*
X112641569Y-45111692D01*
X112641569Y-45111690D01*
X112649862Y-45070000D01*
X111846988Y-45070000D01*
X111864205Y-45060060D01*
X111920060Y-45004205D01*
X111959556Y-44935796D01*
X111980000Y-44859496D01*
X111980000Y-44780504D01*
X111959556Y-44704204D01*
X111920060Y-44635795D01*
X111864205Y-44579940D01*
X111846988Y-44570000D01*
X112295000Y-44570000D01*
X112666265Y-44570000D01*
X112686818Y-44556000D01*
X112724924Y-44550000D01*
X112817828Y-44550000D01*
X112817844Y-44549999D01*
X112877372Y-44543598D01*
X112877379Y-44543596D01*
X113012086Y-44493354D01*
X113012093Y-44493350D01*
X113127187Y-44407190D01*
X113127190Y-44407187D01*
X113213350Y-44292093D01*
X113213354Y-44292086D01*
X113263596Y-44157379D01*
X113263598Y-44157372D01*
X113269999Y-44097844D01*
X113270000Y-44097827D01*
X113270000Y-44000000D01*
X112295000Y-44000000D01*
X112295000Y-44570000D01*
X111846988Y-44570000D01*
X111795796Y-44540444D01*
X111795000Y-44540230D01*
X111795000Y-44000000D01*
X111103242Y-44000000D01*
X111036203Y-43980315D01*
X110990448Y-43927511D01*
X110980504Y-43858353D01*
X111009529Y-43794797D01*
X111015561Y-43788319D01*
X111027905Y-43775975D01*
X111060515Y-43743365D01*
X111136281Y-43612135D01*
X111141701Y-43591903D01*
X111178067Y-43532245D01*
X111240914Y-43501717D01*
X111261476Y-43500000D01*
X113270000Y-43500000D01*
X113270000Y-43411071D01*
X113289685Y-43344032D01*
X113342489Y-43298277D01*
X113411647Y-43288333D01*
X113426078Y-43291293D01*
X113460438Y-43300500D01*
X113539562Y-43300500D01*
X114824167Y-43300500D01*
X114891206Y-43320185D01*
X114911848Y-43336819D01*
X115315489Y-43740460D01*
X115384012Y-43780022D01*
X115460438Y-43800500D01*
X115824167Y-43800500D01*
X115891206Y-43820185D01*
X115911848Y-43836819D01*
X116815489Y-44740460D01*
X116829959Y-44748814D01*
X116863385Y-44768114D01*
X116911600Y-44818681D01*
X116924822Y-44887288D01*
X116898854Y-44952153D01*
X116841939Y-44992681D01*
X116801384Y-44999500D01*
X114840621Y-44999500D01*
X114815681Y-44995425D01*
X114774997Y-44999500D01*
X114734103Y-44999500D01*
X114719413Y-45003435D01*
X114719414Y-45003436D01*
X114709694Y-45006040D01*
X114684553Y-45008559D01*
X114646311Y-45023023D01*
X114640332Y-45024626D01*
X114640331Y-45024625D01*
X114606816Y-45033607D01*
X114606814Y-45033607D01*
X114606814Y-45033608D01*
X114593634Y-45041217D01*
X114593633Y-45041216D01*
X114584917Y-45046247D01*
X114561293Y-45055185D01*
X114528119Y-45079039D01*
X114522752Y-45082138D01*
X114522740Y-45082147D01*
X114492686Y-45099499D01*
X114481923Y-45110262D01*
X114466641Y-45123248D01*
X112446168Y-46576173D01*
X112380248Y-46599331D01*
X112373774Y-46599500D01*
X105071975Y-46599500D01*
X105063706Y-46599499D01*
X105063697Y-46599497D01*
X105034453Y-46599498D01*
X105027000Y-46599498D01*
X104995295Y-46590186D01*
X104959969Y-46579815D01*
X104959965Y-46579811D01*
X104959962Y-46579810D01*
X104938168Y-46554656D01*
X104914213Y-46527012D01*
X104914212Y-46527007D01*
X104914209Y-46527004D01*
X104914204Y-46526972D01*
X104903006Y-46475293D01*
X104906186Y-44570000D01*
X105680138Y-44570000D01*
X106483012Y-44570000D01*
X106465795Y-44579940D01*
X106409940Y-44635795D01*
X106370444Y-44704204D01*
X106350000Y-44780504D01*
X106350000Y-44859496D01*
X106370444Y-44935796D01*
X106409940Y-45004205D01*
X106465795Y-45060060D01*
X106483012Y-45070000D01*
X105680138Y-45070000D01*
X105688430Y-45111690D01*
X105688430Y-45111692D01*
X105763807Y-45293671D01*
X105763814Y-45293684D01*
X105873248Y-45457462D01*
X105873251Y-45457466D01*
X106012533Y-45596748D01*
X106012537Y-45596751D01*
X106176315Y-45706185D01*
X106176328Y-45706192D01*
X106358306Y-45781569D01*
X106358318Y-45781572D01*
X106551504Y-45819999D01*
X106551508Y-45820000D01*
X106700000Y-45820000D01*
X106700000Y-45120000D01*
X107200000Y-45120000D01*
X107200000Y-45820000D01*
X107348492Y-45820000D01*
X107348495Y-45819999D01*
X107541681Y-45781572D01*
X107541693Y-45781569D01*
X107723671Y-45706192D01*
X107723684Y-45706185D01*
X107887462Y-45596751D01*
X107887466Y-45596748D01*
X108026748Y-45457466D01*
X108026751Y-45457462D01*
X108136185Y-45293684D01*
X108136192Y-45293671D01*
X108211569Y-45111692D01*
X108211569Y-45111690D01*
X108219862Y-45070000D01*
X107416988Y-45070000D01*
X107434205Y-45060060D01*
X107490060Y-45004205D01*
X107529556Y-44935796D01*
X107550000Y-44859496D01*
X107550000Y-44780504D01*
X107529556Y-44704204D01*
X107490060Y-44635795D01*
X107434205Y-44579940D01*
X107416988Y-44570000D01*
X108219862Y-44570000D01*
X108211569Y-44528309D01*
X108211569Y-44528307D01*
X108136192Y-44346328D01*
X108136185Y-44346315D01*
X108026751Y-44182537D01*
X108026748Y-44182533D01*
X107887466Y-44043251D01*
X107887462Y-44043248D01*
X107723684Y-43933814D01*
X107723671Y-43933807D01*
X107541693Y-43858430D01*
X107541681Y-43858427D01*
X107348495Y-43820000D01*
X107200000Y-43820000D01*
X107200000Y-44520000D01*
X106700000Y-44520000D01*
X106700000Y-43820000D01*
X106551504Y-43820000D01*
X106358318Y-43858427D01*
X106358306Y-43858430D01*
X106176328Y-43933807D01*
X106176315Y-43933814D01*
X106012537Y-44043248D01*
X106012533Y-44043251D01*
X105873251Y-44182533D01*
X105873248Y-44182537D01*
X105763814Y-44346315D01*
X105763807Y-44346328D01*
X105688430Y-44528307D01*
X105688430Y-44528309D01*
X105680138Y-44570000D01*
X104906186Y-44570000D01*
X104920608Y-35930000D01*
X105680138Y-35930000D01*
X106483012Y-35930000D01*
X106465795Y-35939940D01*
X106409940Y-35995795D01*
X106370444Y-36064204D01*
X106350000Y-36140504D01*
X106350000Y-36219496D01*
X106370444Y-36295796D01*
X106409940Y-36364205D01*
X106465795Y-36420060D01*
X106483012Y-36430000D01*
X105680138Y-36430000D01*
X105688430Y-36471690D01*
X105688430Y-36471692D01*
X105763807Y-36653671D01*
X105763814Y-36653684D01*
X105873248Y-36817462D01*
X105873251Y-36817466D01*
X106012533Y-36956748D01*
X106012537Y-36956751D01*
X106176315Y-37066185D01*
X106176328Y-37066192D01*
X106358306Y-37141569D01*
X106358318Y-37141572D01*
X106551504Y-37179999D01*
X106551508Y-37180000D01*
X106700000Y-37180000D01*
X106700000Y-36480000D01*
X107200000Y-36480000D01*
X107200000Y-37180000D01*
X107348492Y-37180000D01*
X107348495Y-37179999D01*
X107541681Y-37141572D01*
X107541693Y-37141569D01*
X107723671Y-37066192D01*
X107723684Y-37066185D01*
X107887462Y-36956751D01*
X107887466Y-36956748D01*
X108026748Y-36817466D01*
X108026751Y-36817462D01*
X108136185Y-36653684D01*
X108136192Y-36653671D01*
X108211569Y-36471692D01*
X108211569Y-36471690D01*
X108219862Y-36430000D01*
X107416988Y-36430000D01*
X107434205Y-36420060D01*
X107490060Y-36364205D01*
X107529556Y-36295796D01*
X107550000Y-36219496D01*
X107550000Y-36140504D01*
X107529556Y-36064204D01*
X107490060Y-35995795D01*
X107434205Y-35939940D01*
X107416988Y-35930000D01*
X108219862Y-35930000D01*
X108211569Y-35888309D01*
X108211569Y-35888307D01*
X108136192Y-35706328D01*
X108136185Y-35706315D01*
X108026751Y-35542537D01*
X108026748Y-35542533D01*
X107887466Y-35403251D01*
X107887462Y-35403248D01*
X107723684Y-35293814D01*
X107723671Y-35293807D01*
X107541693Y-35218430D01*
X107541681Y-35218427D01*
X107348495Y-35180000D01*
X107200000Y-35180000D01*
X107200000Y-35880000D01*
X106700000Y-35880000D01*
X106700000Y-35180000D01*
X106551504Y-35180000D01*
X106358318Y-35218427D01*
X106358306Y-35218430D01*
X106176328Y-35293807D01*
X106176315Y-35293814D01*
X106012537Y-35403248D01*
X106012533Y-35403251D01*
X105873251Y-35542533D01*
X105873248Y-35542537D01*
X105763814Y-35706315D01*
X105763807Y-35706328D01*
X105688430Y-35888307D01*
X105688430Y-35888309D01*
X105680138Y-35930000D01*
X104920608Y-35930000D01*
X104923205Y-34374326D01*
X104923242Y-34366215D01*
X104923330Y-34365892D01*
X104923330Y-34346995D01*
X104923331Y-34346776D01*
X104933268Y-34313494D01*
X104943015Y-34280301D01*
X104943236Y-34280109D01*
X104943321Y-34279826D01*
X104969784Y-34257105D01*
X104995819Y-34234546D01*
X104996141Y-34234475D01*
X104996332Y-34234312D01*
X104997895Y-34234094D01*
X105047355Y-34223340D01*
X114855610Y-34225457D01*
G37*
%TD.AperFunction*%
%TA.AperFunction,Conductor*%
G36*
X134192518Y-34243015D02*
G01*
X134238273Y-34295819D01*
X134249478Y-34347305D01*
X134251662Y-46452648D01*
X134231990Y-46519691D01*
X134179194Y-46565455D01*
X134127662Y-46576670D01*
X131188273Y-46576670D01*
X131121234Y-46556985D01*
X131075479Y-46504181D01*
X131065535Y-46435023D01*
X131094560Y-46371467D01*
X131119380Y-46349568D01*
X131169655Y-46315977D01*
X131315977Y-46169655D01*
X131430941Y-45997598D01*
X131510130Y-45806420D01*
X131550500Y-45603465D01*
X131550500Y-45396535D01*
X131510130Y-45193580D01*
X131430941Y-45002402D01*
X131315977Y-44830345D01*
X131315975Y-44830342D01*
X131169657Y-44684024D01*
X131048580Y-44603124D01*
X130997598Y-44569059D01*
X130951583Y-44549999D01*
X130806420Y-44489870D01*
X130806412Y-44489868D01*
X130603469Y-44449500D01*
X130603465Y-44449500D01*
X130396535Y-44449500D01*
X130396530Y-44449500D01*
X130193587Y-44489868D01*
X130193579Y-44489870D01*
X130073029Y-44539804D01*
X130003559Y-44547273D01*
X129941080Y-44515998D01*
X129937895Y-44512924D01*
X128836819Y-43411848D01*
X128822115Y-43384920D01*
X128805523Y-43359102D01*
X128804631Y-43352901D01*
X128803334Y-43350525D01*
X128800500Y-43324167D01*
X128800500Y-43162051D01*
X128820185Y-43095012D01*
X128872989Y-43049257D01*
X128942147Y-43039313D01*
X128986499Y-43054663D01*
X129006814Y-43066392D01*
X129134108Y-43100500D01*
X129134110Y-43100500D01*
X129265889Y-43100500D01*
X129265892Y-43100500D01*
X129319323Y-43086183D01*
X129389170Y-43087846D01*
X129447032Y-43127008D01*
X129473031Y-43181767D01*
X129489868Y-43266412D01*
X129489870Y-43266420D01*
X129550108Y-43411848D01*
X129569059Y-43457598D01*
X129598538Y-43501717D01*
X129684024Y-43629657D01*
X129830342Y-43775975D01*
X129830345Y-43775977D01*
X130002402Y-43890941D01*
X130193580Y-43970130D01*
X130343748Y-44000000D01*
X130396530Y-44010499D01*
X130396534Y-44010500D01*
X130396535Y-44010500D01*
X130603466Y-44010500D01*
X130603467Y-44010499D01*
X130806420Y-43970130D01*
X130997598Y-43890941D01*
X131169655Y-43775977D01*
X131315977Y-43629655D01*
X131430941Y-43457598D01*
X131510130Y-43266420D01*
X131550500Y-43063465D01*
X131550500Y-42856535D01*
X131510130Y-42653580D01*
X131430941Y-42462402D01*
X131315977Y-42290345D01*
X131315975Y-42290342D01*
X131169657Y-42144024D01*
X131053172Y-42066192D01*
X130997598Y-42029059D01*
X130985843Y-42024190D01*
X130806420Y-41949870D01*
X130806412Y-41949868D01*
X130603469Y-41909500D01*
X130603465Y-41909500D01*
X130396535Y-41909500D01*
X130396530Y-41909500D01*
X130193587Y-41949868D01*
X130193579Y-41949870D01*
X130002403Y-42029058D01*
X129830344Y-42144023D01*
X129728771Y-42245596D01*
X129721681Y-42249467D01*
X129716944Y-42256006D01*
X129691463Y-42265967D01*
X129667448Y-42279080D01*
X129659393Y-42278503D01*
X129651870Y-42281445D01*
X129625044Y-42276047D01*
X129597756Y-42274096D01*
X129589534Y-42268902D01*
X129583373Y-42267663D01*
X129558065Y-42249024D01*
X129554791Y-42246956D01*
X129554109Y-42246295D01*
X129507314Y-42199500D01*
X129503634Y-42197375D01*
X129495036Y-42189042D01*
X129481201Y-42164621D01*
X129464645Y-42141947D01*
X129464209Y-42134627D01*
X129460596Y-42128250D01*
X129462160Y-42100227D01*
X129460491Y-42072201D01*
X129464081Y-42065807D01*
X129464490Y-42058489D01*
X129480956Y-42035759D01*
X129494704Y-42011281D01*
X129505414Y-42001999D01*
X129505481Y-42001908D01*
X129505552Y-42001879D01*
X129505847Y-42001625D01*
X129507306Y-42000504D01*
X129507314Y-42000500D01*
X129600500Y-41907314D01*
X129666392Y-41793186D01*
X129700500Y-41665892D01*
X129700500Y-41575832D01*
X129709145Y-41546388D01*
X129715668Y-41516406D01*
X129719422Y-41511390D01*
X129720185Y-41508793D01*
X129736813Y-41488156D01*
X129853718Y-41371251D01*
X129915037Y-41337769D01*
X129984729Y-41342753D01*
X129999849Y-41349577D01*
X130002398Y-41350939D01*
X130002400Y-41350940D01*
X130002402Y-41350941D01*
X130193580Y-41430130D01*
X130368930Y-41465009D01*
X130396530Y-41470499D01*
X130396534Y-41470500D01*
X130396535Y-41470500D01*
X130603466Y-41470500D01*
X130603467Y-41470499D01*
X130806420Y-41430130D01*
X130997598Y-41350941D01*
X131169655Y-41235977D01*
X131315977Y-41089655D01*
X131430941Y-40917598D01*
X131510130Y-40726420D01*
X131550500Y-40523465D01*
X131550500Y-40316535D01*
X131510130Y-40113580D01*
X131430941Y-39922402D01*
X131315977Y-39750345D01*
X131315975Y-39750342D01*
X131169657Y-39604024D01*
X131083626Y-39546541D01*
X130997598Y-39489059D01*
X130996958Y-39488794D01*
X130806420Y-39409870D01*
X130806412Y-39409868D01*
X130603469Y-39369500D01*
X130603465Y-39369500D01*
X130396535Y-39369500D01*
X130396530Y-39369500D01*
X130193587Y-39409868D01*
X130193579Y-39409870D01*
X130002403Y-39489058D01*
X129830342Y-39604024D01*
X129684024Y-39750342D01*
X129569058Y-39922403D01*
X129489870Y-40113579D01*
X129489868Y-40113587D01*
X129449500Y-40316530D01*
X129449500Y-40523469D01*
X129489867Y-40726412D01*
X129489869Y-40726416D01*
X129489870Y-40726420D01*
X129498721Y-40747788D01*
X129504657Y-40762119D01*
X129506793Y-40781994D01*
X129513779Y-40800724D01*
X129510450Y-40816022D01*
X129512124Y-40831589D01*
X129503176Y-40849464D01*
X129498927Y-40868997D01*
X129482238Y-40891290D01*
X129480849Y-40894067D01*
X129477777Y-40897251D01*
X129311845Y-41063182D01*
X129250524Y-41096666D01*
X129224166Y-41099500D01*
X129134108Y-41099500D01*
X129006814Y-41133608D01*
X129006813Y-41133608D01*
X129006811Y-41133609D01*
X129006808Y-41133610D01*
X128986498Y-41145336D01*
X128918598Y-41161807D01*
X128852571Y-41138954D01*
X128809382Y-41084032D01*
X128800500Y-41037948D01*
X128800500Y-39460440D01*
X128800500Y-39460438D01*
X128787414Y-39411600D01*
X128780022Y-39384012D01*
X128740460Y-39315489D01*
X127684511Y-38259540D01*
X127684507Y-38259537D01*
X127663339Y-38247316D01*
X127663337Y-38247315D01*
X127651463Y-38240460D01*
X127615989Y-38219979D01*
X127539562Y-38199500D01*
X127510551Y-38199500D01*
X127492465Y-38193840D01*
X127478533Y-38184534D01*
X127462461Y-38179815D01*
X127450084Y-38165531D01*
X127434364Y-38155031D01*
X127427674Y-38139669D01*
X127416706Y-38127011D01*
X127411258Y-38101970D01*
X127406469Y-38090972D01*
X127407491Y-38084655D01*
X127405500Y-38075501D01*
X127405499Y-37855143D01*
X127405499Y-37855136D01*
X127402832Y-37832135D01*
X127402586Y-37830012D01*
X127402585Y-37830010D01*
X127402585Y-37830009D01*
X127357206Y-37727235D01*
X127357205Y-37727233D01*
X127323445Y-37693473D01*
X127289960Y-37632150D01*
X127291351Y-37573703D01*
X127300500Y-37539562D01*
X127300500Y-37460438D01*
X127280022Y-37384012D01*
X127279092Y-37382402D01*
X127273658Y-37372989D01*
X127240460Y-37315489D01*
X126684511Y-36759540D01*
X126684510Y-36759539D01*
X126684507Y-36759537D01*
X126651462Y-36740459D01*
X126651462Y-36740458D01*
X126651460Y-36740458D01*
X126639083Y-36733312D01*
X126615990Y-36719979D01*
X126615991Y-36719979D01*
X126570933Y-36707906D01*
X126539562Y-36699500D01*
X126539560Y-36699500D01*
X123241519Y-36699500D01*
X123174480Y-36679815D01*
X123153838Y-36663181D01*
X122202838Y-35712181D01*
X122169353Y-35650858D01*
X122174337Y-35581166D01*
X122216209Y-35525233D01*
X122281673Y-35500816D01*
X122290519Y-35500500D01*
X127349878Y-35500500D01*
X127365339Y-35503628D01*
X127415574Y-35500500D01*
X127465892Y-35500500D01*
X127469131Y-35499631D01*
X127493514Y-35495646D01*
X127496868Y-35495438D01*
X127544575Y-35479417D01*
X127593186Y-35466392D01*
X127606845Y-35458505D01*
X127621796Y-35453485D01*
X127660530Y-35427785D01*
X127667057Y-35423741D01*
X127707314Y-35400500D01*
X127709678Y-35398135D01*
X127728806Y-35382486D01*
X128957450Y-34567324D01*
X129024192Y-34546666D01*
X129091511Y-34565371D01*
X129138031Y-34617502D01*
X129150000Y-34670653D01*
X129150000Y-35090000D01*
X130066988Y-35090000D01*
X130034075Y-35147007D01*
X130000000Y-35274174D01*
X130000000Y-35405826D01*
X130034075Y-35532993D01*
X130066988Y-35590000D01*
X129150000Y-35590000D01*
X129150000Y-36237844D01*
X129156401Y-36297372D01*
X129156403Y-36297379D01*
X129206645Y-36432086D01*
X129206649Y-36432093D01*
X129292809Y-36547187D01*
X129292812Y-36547190D01*
X129407906Y-36633350D01*
X129407913Y-36633354D01*
X129542620Y-36683596D01*
X129542627Y-36683598D01*
X129602155Y-36689999D01*
X129602172Y-36690000D01*
X130004435Y-36690000D01*
X130071474Y-36709685D01*
X130117229Y-36762489D01*
X130127173Y-36831647D01*
X130098148Y-36895203D01*
X130051888Y-36928561D01*
X130002403Y-36949058D01*
X129830342Y-37064024D01*
X129684024Y-37210342D01*
X129569058Y-37382403D01*
X129489870Y-37573579D01*
X129489868Y-37573587D01*
X129449500Y-37776530D01*
X129449500Y-37983469D01*
X129489868Y-38186412D01*
X129489870Y-38186420D01*
X129557834Y-38350500D01*
X129569059Y-38377598D01*
X129602245Y-38427264D01*
X129684024Y-38549657D01*
X129830342Y-38695975D01*
X129830345Y-38695977D01*
X130002402Y-38810941D01*
X130193580Y-38890130D01*
X130342481Y-38919748D01*
X130396530Y-38930499D01*
X130396534Y-38930500D01*
X130396535Y-38930500D01*
X130603466Y-38930500D01*
X130603467Y-38930499D01*
X130806420Y-38890130D01*
X130997598Y-38810941D01*
X131169655Y-38695977D01*
X131315977Y-38549655D01*
X131430941Y-38377598D01*
X131510130Y-38186420D01*
X131550500Y-37983465D01*
X131550500Y-37776535D01*
X131510130Y-37573580D01*
X131430941Y-37382402D01*
X131315977Y-37210345D01*
X131315975Y-37210342D01*
X131169657Y-37064024D01*
X130999789Y-36950523D01*
X130997598Y-36949059D01*
X130948112Y-36928561D01*
X130893709Y-36884720D01*
X130871644Y-36818426D01*
X130888923Y-36750726D01*
X130940061Y-36703116D01*
X130995565Y-36690000D01*
X131397828Y-36690000D01*
X131397844Y-36689999D01*
X131457372Y-36683598D01*
X131457379Y-36683596D01*
X131592086Y-36633354D01*
X131592093Y-36633350D01*
X131707187Y-36547190D01*
X131707190Y-36547187D01*
X131793350Y-36432093D01*
X131793354Y-36432086D01*
X131843596Y-36297379D01*
X131843598Y-36297372D01*
X131849999Y-36237844D01*
X131850000Y-36237827D01*
X131850000Y-35590000D01*
X130933012Y-35590000D01*
X130965925Y-35532993D01*
X131000000Y-35405826D01*
X131000000Y-35274174D01*
X130965925Y-35147007D01*
X130933012Y-35090000D01*
X131850000Y-35090000D01*
X131850000Y-34442172D01*
X131849999Y-34442155D01*
X131843597Y-34382621D01*
X131841996Y-34375842D01*
X131845738Y-34306073D01*
X131886606Y-34249402D01*
X131951625Y-34223823D01*
X131962673Y-34223330D01*
X134125479Y-34223330D01*
X134192518Y-34243015D01*
G37*
%TD.AperFunction*%
%TA.AperFunction,Conductor*%
G36*
X120507310Y-37465286D02*
G01*
X120540414Y-37472488D01*
X120541626Y-37473395D01*
X120542347Y-37473566D01*
X120568668Y-37493639D01*
X120663181Y-37588152D01*
X120696666Y-37649475D01*
X120699500Y-37675833D01*
X120699500Y-38039562D01*
X120709130Y-38075501D01*
X120719979Y-38115990D01*
X120719980Y-38115991D01*
X120733651Y-38139669D01*
X120749232Y-38166657D01*
X120750488Y-38168833D01*
X120759541Y-38184512D01*
X121037848Y-38462819D01*
X121071333Y-38524142D01*
X121066349Y-38593834D01*
X121024477Y-38649767D01*
X120959013Y-38674184D01*
X120950167Y-38674500D01*
X120636602Y-38674500D01*
X120559881Y-38689760D01*
X120559879Y-38689761D01*
X120476554Y-38745438D01*
X120472802Y-38746612D01*
X120470439Y-38751553D01*
X120414759Y-38834884D01*
X120414758Y-38834887D01*
X120399500Y-38911595D01*
X120399500Y-39088398D01*
X120414760Y-39165119D01*
X120425446Y-39181111D01*
X120446323Y-39247788D01*
X120427837Y-39315168D01*
X120425446Y-39318889D01*
X120414759Y-39334882D01*
X120399500Y-39411596D01*
X120399500Y-39588398D01*
X120414760Y-39665119D01*
X120425446Y-39681111D01*
X120446323Y-39747788D01*
X120427837Y-39815168D01*
X120425446Y-39818889D01*
X120414759Y-39834882D01*
X120399500Y-39911596D01*
X120399500Y-40088398D01*
X120414760Y-40165119D01*
X120425446Y-40181111D01*
X120446323Y-40247788D01*
X120427837Y-40315168D01*
X120425446Y-40318889D01*
X120414759Y-40334882D01*
X120399500Y-40411596D01*
X120399500Y-40588398D01*
X120414760Y-40665119D01*
X120425446Y-40681111D01*
X120446323Y-40747788D01*
X120427837Y-40815168D01*
X120425446Y-40818889D01*
X120414759Y-40834882D01*
X120399500Y-40911596D01*
X120399500Y-41088398D01*
X120414760Y-41165119D01*
X120425446Y-41181111D01*
X120446323Y-41247788D01*
X120427837Y-41315168D01*
X120425446Y-41318889D01*
X120414759Y-41334882D01*
X120399500Y-41411596D01*
X120399500Y-41588398D01*
X120414760Y-41665119D01*
X120425446Y-41681111D01*
X120446323Y-41747788D01*
X120427837Y-41815168D01*
X120425446Y-41818889D01*
X120414759Y-41834882D01*
X120399500Y-41911596D01*
X120399500Y-42088398D01*
X120414760Y-42165118D01*
X120414761Y-42165120D01*
X120455571Y-42226195D01*
X120472888Y-42252112D01*
X120559883Y-42310240D01*
X120559886Y-42310240D01*
X120559887Y-42310241D01*
X120579519Y-42314146D01*
X120636599Y-42325500D01*
X121363400Y-42325499D01*
X121440117Y-42310240D01*
X121527112Y-42252112D01*
X121585240Y-42165117D01*
X121600500Y-42088401D01*
X121600499Y-41911600D01*
X121585240Y-41834883D01*
X121585239Y-41834881D01*
X121585238Y-41834878D01*
X121574555Y-41818891D01*
X121553676Y-41752214D01*
X121572160Y-41684833D01*
X121574517Y-41681164D01*
X121585240Y-41665117D01*
X121600500Y-41588401D01*
X121600499Y-41411600D01*
X121585240Y-41334883D01*
X121585239Y-41334881D01*
X121585238Y-41334878D01*
X121574555Y-41318891D01*
X121553676Y-41252214D01*
X121572160Y-41184833D01*
X121574517Y-41181164D01*
X121585240Y-41165117D01*
X121600500Y-41088401D01*
X121600499Y-40911600D01*
X121585240Y-40834883D01*
X121585239Y-40834881D01*
X121585238Y-40834878D01*
X121574555Y-40818891D01*
X121553676Y-40752214D01*
X121572160Y-40684833D01*
X121574517Y-40681164D01*
X121585240Y-40665117D01*
X121600500Y-40588401D01*
X121600499Y-40411600D01*
X121585240Y-40334883D01*
X121585239Y-40334882D01*
X121584370Y-40330511D01*
X121590597Y-40260919D01*
X121633460Y-40205742D01*
X121699350Y-40182498D01*
X121767347Y-40198566D01*
X121793668Y-40218639D01*
X122163181Y-40588152D01*
X122196666Y-40649475D01*
X122199500Y-40675833D01*
X122199500Y-41539562D01*
X122202431Y-41550500D01*
X122219979Y-41615990D01*
X122230440Y-41634108D01*
X122251156Y-41669989D01*
X122251156Y-41669991D01*
X122259537Y-41684507D01*
X122259539Y-41684510D01*
X122259540Y-41684511D01*
X122424540Y-41849511D01*
X122480489Y-41905460D01*
X122480491Y-41905461D01*
X122480495Y-41905464D01*
X122510824Y-41922974D01*
X122549011Y-41945021D01*
X122607595Y-41960719D01*
X122667254Y-41997084D01*
X122697783Y-42059931D01*
X122699500Y-42080493D01*
X122699500Y-42639562D01*
X122706324Y-42665029D01*
X122719979Y-42715990D01*
X122719980Y-42715991D01*
X122745122Y-42759539D01*
X122759540Y-42784511D01*
X122863181Y-42888152D01*
X122896666Y-42949475D01*
X122899500Y-42975833D01*
X122899500Y-43065891D01*
X122933608Y-43193187D01*
X122937253Y-43199500D01*
X122999500Y-43307314D01*
X123092686Y-43400500D01*
X123092687Y-43400501D01*
X123092689Y-43400502D01*
X123209794Y-43468113D01*
X123258010Y-43518680D01*
X123271232Y-43587287D01*
X123245264Y-43652152D01*
X123188350Y-43692680D01*
X123147794Y-43699500D01*
X120378058Y-43699500D01*
X120311019Y-43679815D01*
X120265264Y-43627011D01*
X120255320Y-43557853D01*
X120284345Y-43494297D01*
X120293737Y-43486009D01*
X120293476Y-43485748D01*
X120302108Y-43477114D01*
X120302112Y-43477112D01*
X120360240Y-43390117D01*
X120375500Y-43313401D01*
X120375499Y-42586600D01*
X120360240Y-42509883D01*
X120360239Y-42509881D01*
X120360238Y-42509879D01*
X120327202Y-42460438D01*
X120302112Y-42422888D01*
X120288291Y-42413653D01*
X120288290Y-42413652D01*
X120215119Y-42364761D01*
X120215112Y-42364758D01*
X120138404Y-42349500D01*
X119961601Y-42349500D01*
X119884880Y-42364760D01*
X119868889Y-42375446D01*
X119802212Y-42396323D01*
X119734832Y-42377837D01*
X119731111Y-42375446D01*
X119715117Y-42364759D01*
X119638403Y-42349500D01*
X119461601Y-42349500D01*
X119384880Y-42364760D01*
X119368889Y-42375446D01*
X119302212Y-42396323D01*
X119234832Y-42377837D01*
X119231111Y-42375446D01*
X119215117Y-42364759D01*
X119138403Y-42349500D01*
X118961601Y-42349500D01*
X118884880Y-42364760D01*
X118868889Y-42375446D01*
X118802212Y-42396323D01*
X118734832Y-42377837D01*
X118731111Y-42375446D01*
X118715117Y-42364759D01*
X118638403Y-42349500D01*
X118461601Y-42349500D01*
X118384880Y-42364760D01*
X118368889Y-42375446D01*
X118302212Y-42396323D01*
X118234832Y-42377837D01*
X118231111Y-42375446D01*
X118215117Y-42364759D01*
X118138403Y-42349500D01*
X117961601Y-42349500D01*
X117884880Y-42364760D01*
X117868889Y-42375446D01*
X117802212Y-42396323D01*
X117734832Y-42377837D01*
X117731111Y-42375446D01*
X117715117Y-42364759D01*
X117638403Y-42349500D01*
X117461601Y-42349500D01*
X117384880Y-42364760D01*
X117368889Y-42375446D01*
X117302212Y-42396323D01*
X117234832Y-42377837D01*
X117231111Y-42375446D01*
X117215117Y-42364759D01*
X117138403Y-42349500D01*
X116961601Y-42349500D01*
X116884881Y-42364760D01*
X116884879Y-42364761D01*
X116801554Y-42420438D01*
X116734876Y-42441316D01*
X116667496Y-42422831D01*
X116620806Y-42370853D01*
X116609630Y-42301883D01*
X116629559Y-42248449D01*
X116685240Y-42165117D01*
X116700500Y-42088401D01*
X116700499Y-41911600D01*
X116685240Y-41834883D01*
X116685239Y-41834881D01*
X116685238Y-41834878D01*
X116674555Y-41818891D01*
X116653676Y-41752214D01*
X116672160Y-41684833D01*
X116674517Y-41681164D01*
X116685240Y-41665117D01*
X116700500Y-41588401D01*
X116700499Y-41411600D01*
X116685240Y-41334883D01*
X116685239Y-41334881D01*
X116685238Y-41334878D01*
X116674555Y-41318891D01*
X116653676Y-41252214D01*
X116672160Y-41184833D01*
X116674517Y-41181164D01*
X116685240Y-41165117D01*
X116700500Y-41088401D01*
X116700499Y-40911600D01*
X116685240Y-40834883D01*
X116685239Y-40834881D01*
X116685238Y-40834878D01*
X116674555Y-40818891D01*
X116653676Y-40752214D01*
X116660602Y-40709080D01*
X116665799Y-40694211D01*
X116685240Y-40665117D01*
X116697478Y-40603588D01*
X116700346Y-40595387D01*
X116715839Y-40573771D01*
X116728167Y-40550204D01*
X116740846Y-40538883D01*
X116741050Y-40538599D01*
X116741256Y-40538517D01*
X116741914Y-40537930D01*
X116838678Y-40463681D01*
X116928843Y-40346175D01*
X116985521Y-40209342D01*
X116985521Y-40209340D01*
X116996626Y-40125000D01*
X116224000Y-40125000D01*
X116215314Y-40122449D01*
X116206353Y-40123738D01*
X116182312Y-40112759D01*
X116156961Y-40105315D01*
X116151033Y-40098474D01*
X116142797Y-40094713D01*
X116128507Y-40072478D01*
X116111206Y-40052511D01*
X116108918Y-40041996D01*
X116105023Y-40035935D01*
X116100000Y-40001000D01*
X116100000Y-39999000D01*
X116119685Y-39931961D01*
X116172489Y-39886206D01*
X116224000Y-39875000D01*
X116996626Y-39875000D01*
X116985521Y-39790659D01*
X116985521Y-39790657D01*
X116928843Y-39653824D01*
X116838679Y-39536320D01*
X116741912Y-39462068D01*
X116731083Y-39447237D01*
X116716614Y-39435931D01*
X116707530Y-39414981D01*
X116700710Y-39405640D01*
X116700345Y-39404610D01*
X116697476Y-39396404D01*
X116685240Y-39334883D01*
X116665801Y-39305791D01*
X116660602Y-39290917D01*
X116659597Y-39271125D01*
X116653676Y-39252214D01*
X116657864Y-39236946D01*
X116657062Y-39221137D01*
X116666917Y-39203945D01*
X116672160Y-39184833D01*
X116674517Y-39181164D01*
X116685240Y-39165117D01*
X116700500Y-39088401D01*
X116700499Y-38911600D01*
X116685240Y-38834883D01*
X116685239Y-38834881D01*
X116685238Y-38834879D01*
X116648583Y-38780022D01*
X116627112Y-38747888D01*
X116613291Y-38738653D01*
X116613290Y-38738652D01*
X116540119Y-38689761D01*
X116540112Y-38689758D01*
X116463404Y-38674500D01*
X116295506Y-38674500D01*
X116228467Y-38654815D01*
X116182712Y-38602011D01*
X116172768Y-38532853D01*
X116201793Y-38469297D01*
X116233506Y-38443113D01*
X116244709Y-38436645D01*
X116307314Y-38400500D01*
X116400500Y-38307314D01*
X116466392Y-38193186D01*
X116480725Y-38139690D01*
X116517090Y-38080031D01*
X116579936Y-38049502D01*
X116649312Y-38057796D01*
X116703190Y-38102282D01*
X116724465Y-38168833D01*
X116724500Y-38171784D01*
X116724500Y-38413398D01*
X116739760Y-38490118D01*
X116739761Y-38490120D01*
X116787903Y-38562169D01*
X116797888Y-38577112D01*
X116884883Y-38635240D01*
X116884886Y-38635240D01*
X116884887Y-38635241D01*
X116923241Y-38642870D01*
X116961599Y-38650500D01*
X117138400Y-38650499D01*
X117215117Y-38635240D01*
X117231107Y-38624555D01*
X117297783Y-38603676D01*
X117365164Y-38622159D01*
X117368871Y-38624541D01*
X117382441Y-38633608D01*
X117384883Y-38635240D01*
X117384887Y-38635241D01*
X117423241Y-38642870D01*
X117461599Y-38650500D01*
X117638400Y-38650499D01*
X117715117Y-38635240D01*
X117731107Y-38624555D01*
X117797783Y-38603676D01*
X117865164Y-38622159D01*
X117868871Y-38624541D01*
X117882441Y-38633608D01*
X117884883Y-38635240D01*
X117884887Y-38635241D01*
X117923241Y-38642870D01*
X117961599Y-38650500D01*
X118138400Y-38650499D01*
X118215117Y-38635240D01*
X118231107Y-38624555D01*
X118297783Y-38603676D01*
X118365164Y-38622159D01*
X118368871Y-38624541D01*
X118382441Y-38633608D01*
X118384883Y-38635240D01*
X118384887Y-38635241D01*
X118423241Y-38642870D01*
X118461599Y-38650500D01*
X118638400Y-38650499D01*
X118715117Y-38635240D01*
X118731107Y-38624555D01*
X118797783Y-38603676D01*
X118865164Y-38622159D01*
X118868871Y-38624541D01*
X118882441Y-38633608D01*
X118884883Y-38635240D01*
X118884887Y-38635241D01*
X118923241Y-38642870D01*
X118961599Y-38650500D01*
X119138400Y-38650499D01*
X119215117Y-38635240D01*
X119231107Y-38624555D01*
X119297783Y-38603676D01*
X119365164Y-38622159D01*
X119368871Y-38624541D01*
X119382441Y-38633608D01*
X119384883Y-38635240D01*
X119384887Y-38635241D01*
X119423241Y-38642870D01*
X119461599Y-38650500D01*
X119638400Y-38650499D01*
X119715117Y-38635240D01*
X119731107Y-38624555D01*
X119797783Y-38603676D01*
X119865164Y-38622159D01*
X119868871Y-38624541D01*
X119882441Y-38633608D01*
X119884883Y-38635240D01*
X119884887Y-38635241D01*
X119923241Y-38642870D01*
X119961599Y-38650500D01*
X120138400Y-38650499D01*
X120215117Y-38635240D01*
X120215118Y-38635238D01*
X120215121Y-38635238D01*
X120264848Y-38602011D01*
X120298446Y-38579561D01*
X120302786Y-38578202D01*
X120304559Y-38573449D01*
X120360240Y-38490117D01*
X120375500Y-38413401D01*
X120375499Y-37686600D01*
X120360240Y-37609883D01*
X120360239Y-37609882D01*
X120359370Y-37605511D01*
X120362388Y-37571778D01*
X120364805Y-37537986D01*
X120365494Y-37537065D01*
X120365597Y-37535919D01*
X120386379Y-37509166D01*
X120406677Y-37482053D01*
X120407754Y-37481650D01*
X120408461Y-37480742D01*
X120440407Y-37469471D01*
X120472141Y-37457636D01*
X120473265Y-37457880D01*
X120474350Y-37457498D01*
X120507310Y-37465286D01*
G37*
%TD.AperFunction*%
%TA.AperFunction,Conductor*%
G36*
X126478039Y-38820185D02*
G01*
X126523794Y-38872989D01*
X126535000Y-38924500D01*
X126535000Y-39376000D01*
X126515315Y-39443039D01*
X126462511Y-39488794D01*
X126411000Y-39500000D01*
X126259000Y-39500000D01*
X126191961Y-39480315D01*
X126146206Y-39427511D01*
X126135000Y-39376000D01*
X126135000Y-38924500D01*
X126137550Y-38915814D01*
X126136262Y-38906853D01*
X126147240Y-38882812D01*
X126154685Y-38857461D01*
X126161525Y-38851533D01*
X126165287Y-38843297D01*
X126187521Y-38829007D01*
X126207489Y-38811706D01*
X126218003Y-38809418D01*
X126224065Y-38805523D01*
X126259000Y-38800500D01*
X126411000Y-38800500D01*
X126478039Y-38820185D01*
G37*
%TD.AperFunction*%
%TA.AperFunction,Conductor*%
G36*
X125662919Y-38597536D02*
G01*
X125696422Y-38621393D01*
X125815489Y-38740460D01*
X125815491Y-38740461D01*
X125818999Y-38743153D01*
X125821210Y-38746181D01*
X125821236Y-38746207D01*
X125821231Y-38746211D01*
X125860202Y-38799581D01*
X125864357Y-38869327D01*
X125830145Y-38930247D01*
X125819001Y-38939904D01*
X125777076Y-38972074D01*
X125680900Y-39097413D01*
X125669358Y-39125278D01*
X125625517Y-39179682D01*
X125559222Y-39201746D01*
X125552382Y-39200000D01*
X124899000Y-39200000D01*
X124890314Y-39197449D01*
X124881353Y-39198738D01*
X124857312Y-39187759D01*
X124831961Y-39180315D01*
X124826033Y-39173474D01*
X124817797Y-39169713D01*
X124803507Y-39147478D01*
X124786206Y-39127511D01*
X124783918Y-39116996D01*
X124780023Y-39110935D01*
X124775000Y-39076000D01*
X124775000Y-38924000D01*
X124794685Y-38856961D01*
X124847489Y-38811206D01*
X124899000Y-38800000D01*
X125497010Y-38800000D01*
X125497011Y-38799998D01*
X125489557Y-38743375D01*
X125488967Y-38741171D01*
X125489012Y-38739237D01*
X125488496Y-38735310D01*
X125489108Y-38735229D01*
X125490628Y-38671321D01*
X125529789Y-38613457D01*
X125594016Y-38585951D01*
X125662919Y-38597536D01*
G37*
%TD.AperFunction*%
%TD*%
M02*
