%TF.GenerationSoftware,KiCad,Pcbnew,9.0.2-9.0.2-0~ubuntu22.04.1*%
%TF.CreationDate,2025-06-23T11:59:02+05:30*%
%TF.ProjectId,CP2102,43503231-3032-42e6-9b69-6361645f7063,rev?*%
%TF.SameCoordinates,Original*%
%TF.FileFunction,Paste,Top*%
%TF.FilePolarity,Positive*%
%FSLAX46Y46*%
G04 Gerber Fmt 4.6, Leading zero omitted, Abs format (unit mm)*
G04 Created by KiCad (PCBNEW 9.0.2-9.0.2-0~ubuntu22.04.1) date 2025-06-23 11:59:02*
%MOMM*%
%LPD*%
G01*
G04 APERTURE LIST*
G04 Aperture macros list*
%AMRoundRect*
0 Rectangle with rounded corners*
0 $1 Rounding radius*
0 $2 $3 $4 $5 $6 $7 $8 $9 X,Y pos of 4 corners*
0 Add a 4 corners polygon primitive as box body*
4,1,4,$2,$3,$4,$5,$6,$7,$8,$9,$2,$3,0*
0 Add four circle primitives for the rounded corners*
1,1,$1+$1,$2,$3*
1,1,$1+$1,$4,$5*
1,1,$1+$1,$6,$7*
1,1,$1+$1,$8,$9*
0 Add four rect primitives between the rounded corners*
20,1,$1+$1,$2,$3,$4,$5,0*
20,1,$1+$1,$4,$5,$6,$7,0*
20,1,$1+$1,$6,$7,$8,$9,0*
20,1,$1+$1,$8,$9,$2,$3,0*%
G04 Aperture macros list end*
%ADD10RoundRect,0.079500X-0.079500X-0.100500X0.079500X-0.100500X0.079500X0.100500X-0.079500X0.100500X0*%
%ADD11RoundRect,0.079500X0.079500X0.100500X-0.079500X0.100500X-0.079500X-0.100500X0.079500X-0.100500X0*%
%ADD12R,1.450000X0.600000*%
%ADD13R,1.450000X0.300000*%
%ADD14RoundRect,0.079500X0.100500X-0.079500X0.100500X0.079500X-0.100500X0.079500X-0.100500X-0.079500X0*%
%ADD15RoundRect,0.225000X-0.225000X-0.225000X0.225000X-0.225000X0.225000X0.225000X-0.225000X0.225000X0*%
%ADD16RoundRect,0.062500X-0.337500X-0.062500X0.337500X-0.062500X0.337500X0.062500X-0.337500X0.062500X0*%
%ADD17RoundRect,0.062500X-0.062500X-0.337500X0.062500X-0.337500X0.062500X0.337500X-0.062500X0.337500X0*%
G04 APERTURE END LIST*
D10*
%TO.C,C4*%
X124155000Y-41000000D03*
X124845000Y-41000000D03*
%TD*%
D11*
%TO.C,R3*%
X124845000Y-43000000D03*
X124155000Y-43000000D03*
%TD*%
D10*
%TO.C,R2*%
X126310000Y-39500000D03*
X127000000Y-39500000D03*
%TD*%
%TO.C,R1*%
X124110000Y-39000000D03*
X124800000Y-39000000D03*
%TD*%
D12*
%TO.C,J1*%
X112045000Y-37250000D03*
X112045000Y-38050000D03*
D13*
X112045000Y-39250000D03*
X112045000Y-40250000D03*
X112045000Y-40750000D03*
X112045000Y-41750000D03*
D12*
X112045000Y-42950000D03*
X112045000Y-43750000D03*
X112045000Y-43750000D03*
X112045000Y-42950000D03*
D13*
X112045000Y-42250000D03*
X112045000Y-41250000D03*
X112045000Y-39750000D03*
X112045000Y-38750000D03*
D12*
X112045000Y-38050000D03*
X112045000Y-37250000D03*
%TD*%
D10*
%TO.C,R7*%
X124155000Y-42000000D03*
X124845000Y-42000000D03*
%TD*%
%TO.C,C2*%
X124155000Y-38000000D03*
X124845000Y-38000000D03*
%TD*%
%TO.C,C3*%
X126310000Y-40500000D03*
X127000000Y-40500000D03*
%TD*%
D14*
%TO.C,D4*%
X123000000Y-39190000D03*
X123000000Y-38500000D03*
%TD*%
D15*
%TO.C,U1*%
X117430000Y-39380000D03*
X117430000Y-40500000D03*
X117430000Y-41620000D03*
X118550000Y-39380000D03*
X118550000Y-40500000D03*
X118550000Y-41620000D03*
X119670000Y-39380000D03*
X119670000Y-40500000D03*
X119670000Y-41620000D03*
D16*
X116100000Y-39000000D03*
X116100000Y-39500000D03*
X116100000Y-40000000D03*
X116100000Y-40500000D03*
X116100000Y-41000000D03*
X116100000Y-41500000D03*
X116100000Y-42000000D03*
D17*
X117050000Y-42950000D03*
X117550000Y-42950000D03*
X118050000Y-42950000D03*
X118550000Y-42950000D03*
X119050000Y-42950000D03*
X119550000Y-42950000D03*
X120050000Y-42950000D03*
D16*
X121000000Y-42000000D03*
X121000000Y-41500000D03*
X121000000Y-41000000D03*
X121000000Y-40500000D03*
X121000000Y-40000000D03*
X121000000Y-39500000D03*
X121000000Y-39000000D03*
D17*
X120050000Y-38050000D03*
X119550000Y-38050000D03*
X119050000Y-38050000D03*
X118550000Y-38050000D03*
X118050000Y-38050000D03*
X117550000Y-38050000D03*
X117050000Y-38050000D03*
%TD*%
D10*
%TO.C,R5*%
X126310000Y-43000000D03*
X127000000Y-43000000D03*
%TD*%
%TO.C,R4*%
X124155000Y-40000000D03*
X124845000Y-40000000D03*
%TD*%
%TO.C,C1*%
X126310000Y-38000000D03*
X127000000Y-38000000D03*
%TD*%
D14*
%TO.C,D5*%
X123000000Y-41690000D03*
X123000000Y-41000000D03*
%TD*%
D10*
%TO.C,R6*%
X126310000Y-41500000D03*
X127000000Y-41500000D03*
%TD*%
M02*
